<?xml version="1.0" encoding="UTF-8" standalone="no"?>
<!-- Created with Inkscape (http://www.inkscape.org/) -->

<svg
   xmlns:dc="http://purl.org/dc/elements/1.1/"
   xmlns:cc="http://creativecommons.org/ns#"
   xmlns:rdf="http://www.w3.org/1999/02/22-rdf-syntax-ns#"
   xmlns:svg="http://www.w3.org/2000/svg"
   xmlns="http://www.w3.org/2000/svg"
   xmlns:sodipodi="http://sodipodi.sourceforge.net/DTD/sodipodi-0.dtd"
   xmlns:inkscape="http://www.inkscape.org/namespaces/inkscape"
   id="svg2"
   version="1.1"
   inkscape:version="0.91 r13725"
   width="217.5"
   height="92.5"
   xml:space="preserve"
   sodipodi:docname="CSL_Logo_rot.svg"><metadata
     id="metadata8"><rdf:RDF><cc:Work
         rdf:about=""><dc:format>image/svg+xml</dc:format><dc:type
           rdf:resource="http://purl.org/dc/dcmitype/StillImage" /><dc:title /></cc:Work></rdf:RDF></metadata><defs
     id="defs6"><clipPath
       clipPathUnits="userSpaceOnUse"
       id="clipPath18"><path
         d="m 0,0 1736,0 0,736 L 0,736 0,0 z"
         id="path20" /></clipPath></defs><sodipodi:namedview
     pagecolor="#ffffff"
     bordercolor="#666666"
     borderopacity="1"
     objecttolerance="10"
     gridtolerance="10"
     guidetolerance="10"
     inkscape:pageopacity="0"
     inkscape:pageshadow="2"
     inkscape:window-width="1920"
     inkscape:window-height="1018"
     id="namedview4"
     showgrid="false"
     inkscape:zoom="3.3287356"
     inkscape:cx="53.807245"
     inkscape:cy="70.283149"
     inkscape:window-x="0"
     inkscape:window-y="27"
     inkscape:window-maximized="1"
     inkscape:current-layer="g14" /><g
     id="g10"
     inkscape:groupmode="layer"
     inkscape:label="ink_ext_XXXXXX"
     transform="matrix(1.25,0,0,-1.25,0,92.5)"><g
       id="g12"
       transform="scale(0.1,0.1)"><g
         id="g14"><path
           inkscape:connector-curvature="0"
           id="path22"
           style="fill:#000000;fill-opacity:1;fill-rule:evenodd;stroke:none"
           d="m 1162.3,308.93 0.08,0.121 c 2.62,6.48 3.87,13.508 3.87,20.5 0,26.719 -16.05,44.379 -40.2,53.597 l -0.89,0.352 -0.98,0.199 c -6.76,1.563 -13.63,2.379 -20.59,2.379 l -179.801,0 c -55.199,0 -98.129,24.293 -131.988,67.152 l -0.199,0.27 -0.192,0.23 c -16.058,23.129 -23.988,48.559 -23.988,76.758 0,56.723 31.406,95.672 78.168,123.871 l 0.109,0.082 0.16,0.079 c 25.903,14.64 55.352,20 84.801,20 l 290.98,0 c 57.03,0.07 60.39,-76.879 10.55,-86.411 l 0,-0.98 -316.061,0 c -22.219,0 -35.93,-17.688 -43.75,-36.598 l -0.231,-0.621 -0.199,-0.629 c -1.988,-6.133 -3.551,-12.691 -3.551,-19.179 0,-25.551 14.961,-43.012 37.774,-52.692 l 0.508,-0.238 0.59,-0.192 c 6.601,-2.152 13.511,-3.519 20.46,-3.519 l 177.9,0 c 63.12,0 111.05,-26.41 145.39,-79.41 l 0.27,-0.43 0.23,-0.43 c 9.93,-19.07 15.78,-39.339 15.78,-60.941 l 0,-5.941 c 0,-51.758 -29.17,-88.938 -70.23,-117.071 l -0.31,-0.187 -0.28,-0.16 c -26.99,-16.051 -56.25,-23.911 -87.61,-24.141 l -295.78,0 c -60.789,0 -60.75,87.852 0,87.77 l 304.72,0 c 22.35,0 36.25,17.269 44.46,36.25 l 0.03,0.16" /><path
           inkscape:connector-curvature="0"
           id="path24"
           style="fill:#333333;fill-opacity:1;fill-rule:evenodd;stroke:none"
           d="m 1692.66,272.371 c 52.34,-8.949 48.86,-85.121 -10.55,-85.121 l -41.88,0 c -227.89,0 -350.93,61.371 -350.93,306.289 l 0,134.301 c 0,62.109 87.46,62.07 87.34,-0.039 -0.04,-32.11 -0.19,-64.301 0.59,-96.41 0.62,-27.071 1.87,-54.411 5.11,-81.332 4.85,-40 14.57,-83.239 40.71,-115.11 44.57,-54.418 128.28,-61.679 193.43,-61.679 l 76.18,0 0,-0.899" /><path
           inkscape:connector-curvature="0"
           id="path26"
           style="fill:#000000;fill-opacity:1;fill-rule:nonzero;stroke:none"
           d="m 1692.66,272.371 c 52.34,-8.949 48.86,-85.121 -10.55,-85.121 l -41.88,0 c -227.89,0 -350.93,61.371 -350.93,306.289 l 0,134.301 c 0,62.109 87.46,62.07 87.34,-0.039 -0.04,-32.11 -0.19,-64.301 0.59,-96.41 0.62,-27.11 1.87,-54.411 5.11,-81.332 4.85,-40 14.57,-83.239 40.71,-115.11 44.57,-54.418 128.28,-61.679 193.43,-61.679 l 76.18,0 0,-0.899" /><path
           inkscape:connector-curvature="0"
           id="path28"
           style="fill:none;stroke:#231f20;stroke-width:1.60820997;stroke-linecap:butt;stroke-linejoin:miter;stroke-miterlimit:22.9260006;stroke-opacity:1;stroke-dasharray:none"
           d="m 1692.66,272.371 c 52.34,-8.949 48.86,-85.121 -10.55,-85.121 l -41.88,0 c -227.89,0 -350.93,61.371 -350.93,306.289 l 0,134.301 c 0,62.109 87.46,62.07 87.34,-0.039 -0.04,-32.11 -0.19,-64.301 0.59,-96.41 0.62,-27.11 1.87,-54.411 5.11,-81.332 4.85,-40 14.57,-83.239 40.71,-115.11 44.57,-54.418 128.28,-61.679 193.43,-61.679 l 76.18,0 0,-0.899 z" /><path
           inkscape:connector-curvature="0"
           id="path30"
           style="fill:#000000;fill-opacity:1;fill-rule:evenodd;stroke:none"
           d="m 367.461,211.43 -0.121,0.039 c -9.961,4.492 -19.488,10.043 -28.75,15.98 -2.57,1.672 -5.149,3.512 -7.649,5.313 l -11.171,8.008 72.14,59.492 6.102,-2.934 c 1.047,-0.508 2.148,-1.019 3.16,-1.598 25.859,-14.3 53.949,-21.21 83.476,-21.21 l 217.262,-1.45 c 63.129,0.078 63.129,-87.379 -0.031,-87.379 l -216.367,0.579 c -41.293,0 -80.473,7.46 -117.973,25.121 l -0.078,0.039" /><path
           inkscape:connector-curvature="0"
           id="path32"
           style="fill:#ed1c24;fill-opacity:1;fill-rule:evenodd;stroke:none"
           d="m 634.73,460.059 0.04,0.043 0.031,0 -0.11,-0.043" /><path
           inkscape:connector-curvature="0"
           id="path34"
           style="fill:#000000;fill-opacity:1;fill-rule:nonzero;stroke:none"
           d="m 327.66,93.1094 c -2.582,22.5386 -20.629,35.0816 -42.031,35.0816 -30.16,0 -47.899,-22.5 -47.899,-51.4527 0,-28.1172 17.739,-50.6602 47.899,-50.6602 23.859,0 40.66,15.5821 42.851,39.8828 l -20.75,0 c -1.64,-12.8125 -8.98,-21.8398 -22.101,-21.8398 -19.258,0 -26.488,16.3672 -26.488,32.6172 0,17.0703 7.23,33.4417 26.488,33.4417 10.66,0 19.922,-7.379 21.281,-17.0706 l 20.75,0" /><path
           inkscape:connector-curvature="0"
           id="path36"
           style="fill:#000000;fill-opacity:1;fill-rule:nonzero;stroke:none"
           d="m 358.238,63.6602 c 0,11.3203 3.953,22.6484 17.071,22.6484 13.242,0 17.191,-11.3281 17.191,-22.6484 0,-11.211 -3.949,-22.5391 -17.191,-22.5391 -13.118,0 -17.071,11.3281 -17.071,22.5391 z m -19.367,0 c 0,-22.4297 14.328,-37.1914 36.438,-37.1914 22.23,0 36.57,14.7617 36.57,37.1914 0,22.5 -14.34,37.2618 -36.57,37.2618 -22.11,0 -36.438,-14.7618 -36.438,-37.2618" /><path
           inkscape:connector-curvature="0"
           id="path38"
           style="fill:#000000;fill-opacity:1;fill-rule:nonzero;stroke:none"
           d="m 457.34,45.0586 c -11.871,0 -15.699,11.0625 -15.699,21.1719 0,10.5078 4.769,20.0781 15.699,20.0781 12.539,0 16.531,-10.2305 16.531,-21.7188 0,-10.0703 -5.473,-19.5312 -16.531,-19.5312 z m 34.961,53.9531 -18.43,0 0,-9.4609 -0.281,0 c -4.641,8.2109 -11.75,11.3712 -21.012,11.3712 -19.808,0 -30.308,-16.6837 -30.308,-34.9611 0,-19.3711 8.98,-35.4726 30.152,-35.4726 8.476,0 16.918,3.5234 21.168,10.9023 l 0.281,0 0,-9.3008 c 0.109,-10.1093 -4.812,-17.5 -15.59,-17.5 -6.801,0 -12.691,2.461 -14.453,9.7305 l -19.258,0 c 0.981,-16.12889 17.231,-22.66014 31.129,-22.66014 32.5,0 36.602,19.64844 36.602,31.28904 l 0,66.0625" /><path
           inkscape:connector-curvature="0"
           id="path40"
           style="fill:#000000;fill-opacity:1;fill-rule:nonzero;stroke:none"
           d="m 507.852,28.4219 19.378,0 0,36.9883 c 0,14.3398 4.489,20.1992 15,20.1992 9.02,0 12.418,-5.7383 12.418,-17.3086 l 0,-39.8789 19.411,0 0,43.3984 c 0,17.461 -5.188,29.1017 -25.821,29.1017 -8.16,0 -16.636,-3.8322 -21.558,-11.7618 l -0.391,0 0,9.8515 -18.437,0 0,-70.5898" /><path
           inkscape:connector-curvature="0"
           id="path42"
           style="fill:#000000;fill-opacity:1;fill-rule:nonzero;stroke:none"
           d="m 608.711,125.879 -19.371,0 0,-15.969 19.371,0 0,15.969 z m -19.371,-97.4571 19.371,0 0,70.5898 -19.371,0 0,-70.5898" /><path
           inkscape:connector-curvature="0"
           id="path44"
           style="fill:#000000;fill-opacity:1;fill-rule:nonzero;stroke:none"
           d="m 648.551,120.141 -19.371,0 0,-21.1293 -11.719,0 0,-12.9726 11.719,0 0,-41.6407 c 0,-14.0586 10.39,-16.8398 22.269,-16.8398 3.821,0 8.039,0.1602 11.321,0.7109 l 0,15.1524 c -2.032,-0.3906 -3.942,-0.5117 -6.008,-0.5117 -6.563,0 -8.211,1.6093 -8.211,8.1679 l 0,34.961 14.219,0 0,12.9726 -14.219,0 0,21.1293" /><path
           inkscape:connector-curvature="0"
           id="path46"
           style="fill:#000000;fill-opacity:1;fill-rule:nonzero;stroke:none"
           d="m 691.988,125.879 -19.41,0 0,-15.969 19.41,0 0,15.969 z m -19.41,-97.4571 19.41,0 0,70.5898 -19.41,0 0,-70.5898" /><path
           inkscape:connector-curvature="0"
           id="path48"
           style="fill:#000000;fill-opacity:1;fill-rule:nonzero;stroke:none"
           d="m 770.199,99.0117 -19.258,0 -14.89,-48.2109 -0.27,0 -14.84,48.2109 -20.351,0 24.14,-70.5898 21.559,0 23.91,70.5898" /><path
           inkscape:connector-curvature="0"
           id="path50"
           style="fill:#000000;fill-opacity:1;fill-rule:nonzero;stroke:none"
           d="m 794.219,71.2695 c 0.269,5.4688 3.832,15.0391 16.09,15.0391 9.421,0 13.64,-5.1875 15.429,-15.0391 l -31.519,0 z m 50.902,-12.2578 c 1.359,21.6797 -10.242,41.9103 -34.262,41.9103 -21.41,0 -36.019,-16.1329 -36.019,-37.2618 0,-21.8399 13.75,-37.1914 36.019,-37.1914 15.981,0 27.582,7.1523 33.051,23.7929 l -17.07,0 c -1.25,-4.3828 -7.5,-9.1406 -15.32,-9.1406 -10.739,0 -16.75,5.5781 -17.301,17.8906 l 50.902,0" /><path
           inkscape:connector-curvature="0"
           id="path52"
           style="fill:#000000;fill-opacity:1;fill-rule:nonzero;stroke:none"
           d="m 890.43,60.7695 c -0.27,-24.0312 19.922,-34.6914 41.48,-34.6914 26.488,0 40.551,13.4024 40.551,31.293 0,22.1094 -21.832,26.5977 -28.91,28.3594 -24.449,6.289 -29.102,7.2578 -29.102,14.7575 0,8.211 7.93,11.063 14.77,11.063 10.23,0 18.551,-3.012 19.222,-14.7307 l 20.778,0 c 0,22.4997 -18.707,31.3707 -39.059,31.3707 -17.621,0 -36.449,-9.531 -36.449,-29.4605 0,-18.3203 14.609,-23.9024 29.059,-27.7305 14.339,-3.8281 28.949,-5.5898 28.949,-16.0898 0,-9.961 -11.449,-12.1485 -18.949,-12.1485 -11.481,0 -21.559,5.0391 -21.559,18.0078 l -20.781,0" /><path
           inkscape:connector-curvature="0"
           id="path54"
           style="fill:#000000;fill-opacity:1;fill-rule:nonzero;stroke:none"
           d="m 1047.38,99.0117 -20.04,0 -15.43,-48.3203 -0.27,0 -15.98,48.3203 -20.738,0 24.848,-66.2109 c 2.18,-5.6289 0,-12.582 -6.68,-13.2813 -3.828,-0.1211 -7.66,0.4297 -11.328,0.6993 l 0,-15.98052 c 3.937,-0.38672 7.886,-0.69922 11.867,-0.69922 13.361,0 20.041,4.65235 24.301,15.98044 l 29.45,79.4922" /><path
           inkscape:connector-curvature="0"
           id="path56"
           style="fill:#000000;fill-opacity:1;fill-rule:nonzero;stroke:none"
           d="m 1050.55,51.3516 c 0.82,-18.711 16.79,-24.8828 33.16,-24.8828 16.09,0 32.19,6.0507 32.19,24.6093 0,13.0821 -11.02,17.2227 -22.38,19.8008 -11.02,2.582 -21.96,3.5625 -21.96,10.5117 0,5.7383 6.41,6.5196 10.78,6.5196 6.96,0 12.7,-2.0313 13.25,-9.5313 l 18.43,0 c -1.52,17.3516 -15.7,22.5431 -31.13,22.5431 -15.16,0 -30.7,-4.6525 -30.7,-22.6525 0,-12.4297 11.21,-16.4101 22.38,-18.8711 13.91,-3.0078 21.99,-5.039 21.99,-10.8984 0,-6.8398 -7.11,-9.0195 -12.69,-9.0195 -7.66,0 -14.77,3.4297 -14.89,11.8711 l -18.43,0" /><path
           inkscape:connector-curvature="0"
           id="path58"
           style="fill:#000000;fill-opacity:1;fill-rule:nonzero;stroke:none"
           d="m 1151.84,120.141 -19.42,0 0,-21.1293 -11.72,0 0,-12.9726 11.72,0 0,-41.6407 c 0,-14.0586 10.39,-16.8398 22.27,-16.8398 3.83,0 8.04,0.1602 11.33,0.7109 l 0,15.1524 c -2.04,-0.3906 -3.95,-0.5117 -5.98,-0.5117 -6.56,0 -8.2,1.6093 -8.2,8.1679 l 0,34.961 14.18,0 0,12.9726 -14.18,0 0,21.1293" /><path
           inkscape:connector-curvature="0"
           id="path60"
           style="fill:#000000;fill-opacity:1;fill-rule:nonzero;stroke:none"
           d="m 1191.29,71.2695 c 0.27,5.4688 3.79,15.0391 16.09,15.0391 9.42,0 13.64,-5.1875 15.43,-15.0391 l -31.52,0 z m 50.9,-12.2578 c 1.36,21.6797 -10.24,41.9103 -34.26,41.9103 -21.41,0 -36.05,-16.1329 -36.05,-37.2618 0,-21.8399 13.78,-37.1914 36.05,-37.1914 15.98,0 27.58,7.1523 33.05,23.7929 l -17.07,0 c -1.25,-4.3828 -7.54,-9.1406 -15.32,-9.1406 -10.78,0 -16.75,5.5781 -17.3,17.8906 l 50.9,0" /><path
           inkscape:connector-curvature="0"
           id="path62"
           style="fill:#000000;fill-opacity:1;fill-rule:nonzero;stroke:none"
           d="m 1254.18,28.4219 19.41,0 0,40.9375 c 0,13.789 9.26,16.25 13.09,16.25 12.3,0 11.72,-9.4102 11.72,-17.6211 l 0,-39.5664 19.41,0 0,39.2969 c 0,8.871 2.03,17.8906 12.97,17.8906 11.06,0 11.88,-7.7696 11.88,-17.1875 l 0,-40 19.37,0 0,47.2265 c 0,18.2813 -10.78,25.2736 -25.78,25.2736 -9.84,0 -17.23,-5.6212 -21.33,-11.7618 -3.83,8.4804 -11.72,11.7618 -20.62,11.7618 -9.1,0 -16.49,-4.2618 -21.57,-11.4806 l -0.23,0 0,9.5703 -18.32,0 0,-70.5898" /><path
           inkscape:connector-curvature="0"
           id="path64"
           style="fill:#000000;fill-opacity:1;fill-rule:nonzero;stroke:none"
           d="m 1373.91,51.3516 c 0.82,-18.711 16.79,-24.8828 33.16,-24.8828 16.13,0 32.23,6.0507 32.23,24.6093 0,13.0821 -11.06,17.2227 -22.39,19.8008 -11.05,2.582 -21.99,3.5625 -21.99,10.5117 0,5.7383 6.41,6.5196 10.78,6.5196 6.96,0 12.7,-2.0313 13.25,-9.5313 l 18.43,0 c -1.48,17.3516 -15.7,22.5431 -31.13,22.5431 -15.16,0 -30.7,-4.6525 -30.7,-22.6525 0,-12.4297 11.21,-16.4101 22.38,-18.8711 13.95,-3.0078 21.95,-5.039 21.95,-10.8984 0,-6.8398 -7.07,-9.0195 -12.65,-9.0195 -7.66,0 -14.77,3.4297 -14.89,11.8711 l -18.43,0" /><path
           inkscape:connector-curvature="0"
           id="path66"
           style="fill:#000000;fill-opacity:1;fill-rule:nonzero;stroke:none"
           d="m 1490.63,28.4219 68.9,0 0,18.0078 -47.5,0 0,79.4493 -21.4,0 0,-97.4571" /><path
           inkscape:connector-curvature="0"
           id="path68"
           style="fill:#000000;fill-opacity:1;fill-rule:nonzero;stroke:none"
           d="m 1588.05,77.2891 c 0.7,7.6601 5.47,10.6211 12.85,10.6211 6.83,0 12.54,-1.211 12.54,-9.5313 0,-7.9297 -11.06,-7.5 -22.93,-9.2891 -11.99,-1.6406 -24.03,-5.4296 -24.03,-21.4101 0,-14.4883 10.67,-21.2109 24.03,-21.2109 8.63,0 17.62,2.3828 23.79,8.7929 0.11,-2.3125 0.66,-4.6523 1.33,-6.8398 l 19.68,0 c -1.79,2.8476 -2.46,9.2969 -2.46,15.6992 l 0,36.7187 c 0,16.9219 -16.95,20.0822 -31.01,20.0822 -15.82,0 -32.07,-5.4728 -33.13,-23.6329 l 19.34,0 z m 25.39,-21.5586 c 0,-4.2188 -0.51,-16.25 -15.67,-16.25 -6.29,0 -11.91,1.75 -11.91,9.0195 0,7.1094 5.51,9.1406 11.48,10.3516 6.02,1.0976 12.86,1.207 16.1,4.0976 l 0,-7.2187" /><path
           inkscape:connector-curvature="0"
           id="path70"
           style="fill:#000000;fill-opacity:1;fill-rule:nonzero;stroke:none"
           d="m 1699.61,63.6602 c 0,-11.7618 -5.08,-22.5391 -16.52,-22.5391 -11.49,0 -16.53,10.7773 -16.53,22.5391 0,11.8281 5.04,22.6484 16.53,22.6484 11.44,0 16.52,-10.8203 16.52,-22.6484 z m -51.76,-35.2383 18.44,0 0,8.9883 0.27,0 c 4.22,-7.7813 12.82,-10.9414 23.21,-10.9414 14.06,0 29.21,11.371 29.21,37.3007 0,25.7813 -15.15,37.1525 -29.21,37.1525 -8.72,0 -17.47,-3.2814 -22.27,-10.5509 l -0.23,0 0,35.5079 -19.42,0 0,-97.4571" /><path
           inkscape:connector-curvature="0"
           id="path72"
           style="fill:#000000;fill-opacity:1;fill-rule:evenodd;stroke:none"
           d="m 485,582.91 c -30.121,0 -61.449,-7.461 -87.852,-22.14 l -6.289,-3.481 -70.66,58.199 11.75,7.934 c 6.102,4.098 12.352,8.008 18.75,11.598 l 0.121,0.121 0.16,0.039 c 12.692,6.761 25.899,12.66 39.489,17.582 31.91,11.09 65.23,16.476 99.019,16.476 34.492,0 68.09,-6.437 100.313,-18.668 22.929,-8.75 45.937,-20.859 63.168,-38.672 11.722,-12.148 15.82,-28.668 10,-44.687 -5,-13.59 -16.641,-24.801 -30.821,-28.199 -9.136,-2.192 -18.437,-0.903 -26.679,3.629 -11.059,6.019 -20.86,13.589 -31.41,20.347 -19.329,12.422 -65.039,22.543 -87.887,20 l -0.582,-0.078 -0.59,0" /><path
           inkscape:connector-curvature="0"
           id="path74"
           style="fill:#b51e32;fill-opacity:1;fill-rule:evenodd;stroke:none"
           d="m 37.5781,428.379 c 0,101.531 36.9922,203.09 111.0119,285.16 L 120.23,736 C 40.0781,647.602 0,537.988 0,428.379 0,318.77 40.0781,209.199 120.23,120.73 l 28.36,22.461 C 74.5703,225.301 37.5781,326.82 37.5781,428.379" /><path
           inkscape:connector-curvature="0"
           id="path76"
           style="fill:#b51e32;fill-opacity:1;fill-rule:evenodd;stroke:none"
           d="m 322.379,428.379 c 0,-40.539 20.551,-75.149 48.281,-108.75 L 301.02,261.82 c -42.149,48.239 -63.168,107.379 -63.168,166.559 0,59.141 21.019,118.32 63.168,166.492 l 69.64,-56.293 C 342.93,505.02 322.379,468.93 322.379,428.379" /><path
           inkscape:connector-curvature="0"
           id="path78"
           style="fill:#b51e32;fill-opacity:1;fill-rule:evenodd;stroke:none"
           d="m 173.359,428.379 c 0,71.961 26.09,143.91 78.282,202.109 -15.121,12.461 -30.231,24.961 -45.391,37.422 -62.66,-68.711 -93.949,-154.14 -93.949,-239.531 0,-85.391 31.289,-170.777 93.949,-239.527 15.16,12.457 30.27,24.957 45.391,37.418 -52.192,58.21 -78.282,130.16 -78.282,202.109" /><path
           inkscape:connector-curvature="0"
           id="path80"
           style="fill:#b51e32;fill-opacity:1;fill-rule:evenodd;stroke:none"
           d="m 418.91,505.531 c -2.351,-3.48 -10.98,-25.043 -10.941,-30.16 l 0.429,-0.543 2.114,-20.937 c 2.258,-3.52 -10.391,-18.789 -12.813,-21.563 -2.039,-3.09 -11.609,-14.027 -11.57,-17.269 0.043,-5.539 13.711,-7.258 18.641,-9.758 l -3.168,-16.571 c 3.199,-1.679 6.839,-0.781 3.707,-7.339 1.171,-2.153 4.339,-4.84 4.339,-6.129 l 0,-2.461 c 0,-3.949 -1.207,-4.692 -1.168,-8.641 l 0,-3.039 c 0.04,-7.461 11.09,-14.101 17.891,-13.601 l 17.18,1.449 5.508,0 c 12.851,0.082 13.64,-18.559 13.671,-31.879 0,-3.238 -0.351,-10.27 0.469,-14.961 42.11,-1.52 64.571,2.351 92.891,35.941 -0.699,3.711 -2.031,26.481 -2.031,29.18 l -0.039,8.012 c 0,8.859 16.57,32.148 20.468,42.109 5.082,13.039 11.141,34.488 11.063,52.027 l 0,2.461 c -0.242,48.75 -47.231,79.692 -92.539,79.45 l -11.063,-0.039 c -14.097,-0.04 -29.879,-7.969 -38.121,-14.18 -9.027,-6.871 -16.289,-15.82 -22.027,-25.93 l -2.93,-5.629" /><path
           style="fill:#b51e32;fill-opacity:1"
           d="m 57.876551,52.246288 c -0.14449,-3.181746 -0.440978,-3.502698 -3.143538,-3.402916 -2.680293,0.09896 -3.42224,-0.376275 -3.42224,-2.192029 0,-0.729965 -0.137391,-1.412122 -0.305315,-1.515904 -0.167922,-0.103783 -0.223878,-0.320462 -0.124344,-0.481511 0.09953,-0.161049 0.02219,-0.484137 -0.171879,-0.717973 -0.207581,-0.25012 -0.272871,-0.789297 -0.158585,-1.309637 0.177881,-0.809883 0.104465,-0.914116 -0.870487,-1.235879 -0.585613,-0.19327 -1.128209,-0.454077 -1.205768,-0.579571 -0.07756,-0.125494 0.528896,-1.147073 1.34768,-2.270174 1.476906,-2.025828 1.488698,-2.060205 1.488698,-4.339707 0,-1.998181 0.134127,-2.577579 1.028923,-4.444704 1.755251,-3.662593 4.436871,-5.698765 7.912697,-6.008161 5.217811,-0.464457 10.809609,2.615533 12.209947,6.725299 0.603153,1.770156 0.613044,4.846066 0.02304,7.166674 -0.250372,0.984775 -1.140085,3.156552 -1.97714,4.826172 l -1.521918,3.035673 0.207203,2.375334 0.207203,2.375334 -1.544466,1.444667 c -2.15725,2.017854 -3.777828,2.663979 -7.120138,2.838806 l -2.749063,0.143793 -0.110516,-2.433586 z"
           id="path4167"
           inkscape:connector-curvature="0"
           transform="matrix(8,0,0,-8,0,740)" /><path
           style="fill:#b61532;fill-opacity:1"
           d="M 36.14134,57.680767 C 34.33905,55.390201 31.973072,50.59033 30.995495,47.241368 29.928702,43.58677 29.656855,37.008321 30.4175,33.254385 31.39923,28.409349 33.512171,23.641061 36.216472,20.16781 l 1.431666,-1.838751 4.052485,3.272591 c 2.228866,1.799925 4.093948,3.39389 4.144626,3.542145 0.05068,0.148255 -0.523759,1.106196 -1.276526,2.128759 -3.786618,5.143756 -5.153363,10.551936 -3.896718,15.419235 0.570175,2.208429 2.3693,5.752747 4.028043,7.935336 0.661796,0.870796 1.203267,1.69583 1.203267,1.833405 0,0.258684 -7.923874,6.94762 -8.230318,6.94762 -0.09487,0 -0.78412,-0.777322 -1.531657,-1.727383 z"
           id="path4169"
           inkscape:connector-curvature="0"
           transform="matrix(8,0,0,-8,0,740)" /><path
           style="fill:#b61532;fill-opacity:1"
           d="M 24.484131,67.141224 C 17.146871,58.477112 13.336212,46.50124 14.363502,35.334828 15.213628,26.094143 19.189314,16.607061 24.826753,10.366627 l 1.016683,-1.1254304 2.444477,1.9968664 c 1.344462,1.098276 2.561351,2.100116 2.704198,2.226312 0.142847,0.126196 -0.401449,1.046577 -1.209547,2.045292 -8.422419,10.409131 -10.562712,25.212568 -5.433803,37.583157 1.246743,3.007061 3.442196,6.79275 5.339397,9.206895 0.849527,1.081002 1.499605,1.997632 1.44462,2.036954 -0.05499,0.03932 -1.273401,1.040716 -2.707589,2.225313 l -2.607615,2.153818 -1.333443,-1.57458 z"
           id="path4171"
           inkscape:connector-curvature="0"
           transform="matrix(8,0,0,-8,0,740)" /><path
           style="fill:#b61532;fill-opacity:1"
           d="M 13.618729,75.55413 C 12.856299,74.687393 11.444745,72.829162 10.481943,71.424724 3.5812819,61.358752 0.23178529,50.729446 0.24583435,38.941418 0.25879591,28.065864 3.0857649,18.125221 8.7276062,9.1164483 11.040744,5.4228788 14.62537,0.8189976 15.176768,0.83352671 15.305736,0.836925 16.070889,1.4168263 16.877106,2.1221963 l 1.46585,1.2824909 -1.228342,1.4192384 C 15.325422,6.8911748 13.325372,9.763369 11.661458,12.654989 4.2194146,25.588088 2.5948751,40.973832 7.1689964,55.202349 9.0024625,60.905631 13.216153,68.539998 16.851738,72.74555 l 1.531369,1.771448 -1.185511,1.019071 c -2.060118,1.770886 -2.037082,1.770772 -3.578867,0.01806 l 0,6e-6 z"
           id="path4173"
           inkscape:connector-curvature="0"
           transform="matrix(8,0,0,-8,0,740)" /><path
           style="fill:#b61532;fill-opacity:1"
           d="m 36.152575,57.69945 c -1.794486,-2.275035 -4.144306,-7.055048 -5.141118,-10.458082 -1.077288,-3.67777 -1.356883,-10.22179 -0.596964,-13.972143 0.978903,-4.831086 2.66665,-8.722221 5.49954,-12.679303 l 1.659381,-2.317883 0.736738,0.579519 c 3.629233,2.854755 7.593163,6.166436 7.593163,6.343738 0,0.119969 -0.748376,1.304541 -1.663056,2.632382 -3.471542,5.03963 -4.66406,9.598188 -3.719102,14.216755 0.419284,2.049288 2.604521,6.552059 4.16526,8.582692 0.669294,0.870796 1.216898,1.701853 1.216898,1.846788 0,0.255566 -7.589083,6.689342 -8.112858,6.877816 -0.143348,0.05158 -0.880395,-0.691945 -1.637882,-1.652279 z"
           id="path4175"
           inkscape:connector-curvature="0"
           transform="matrix(8,0,0,-8,0,740)" /><path
           style="fill:#b51e32;fill-opacity:1"
           d="m 36.199432,57.750457 c -1.569783,-2.000066 -3.794046,-6.16325 -4.659283,-8.720846 -1.276606,-3.773582 -1.640879,-6.537537 -1.478645,-11.219338 0.186335,-5.377309 0.801529,-7.879793 3.072709,-12.499154 1.366488,-2.779304 4.051742,-6.90953 4.492211,-6.90953 0.27661,0 8.276891,6.560629 8.276891,6.787464 0,0.133918 -0.595136,1.09488 -1.322523,2.13547 -2.841277,4.064692 -4.371499,8.140047 -4.38091,11.667437 -0.0088,3.29842 1.699376,7.768806 4.33828,11.353505 0.750834,1.019934 1.365153,1.979887 1.365153,2.133228 0,0.272572 -7.560723,6.687722 -8.100374,6.873036 -0.150214,0.05158 -0.871793,-0.66899 -1.603509,-1.601272 z"
           id="path4179"
           inkscape:connector-curvature="0"
           transform="matrix(8,0,0,-8,0,740)" /><path
           style="fill:#b51e32;fill-opacity:1"
           d="m 24.24037,66.853316 c -0.865469,-1.038127 -2.141373,-2.766213 -2.835344,-3.840194 -9.775743,-15.12884 -9.594485,-33.813437 0.473581,-48.818018 0.776326,-1.156971 2.004524,-2.744123 2.729327,-3.527004 l 1.317825,-1.42342 2.46193,2.033479 c 1.354062,1.118413 2.541379,2.112926 2.638482,2.210029 0.0971,0.0971 -0.761674,1.425953 -1.908394,2.952999 -3.33988,4.447602 -5.617562,9.546845 -6.846943,15.328841 -0.751238,3.533208 -0.751322,10.885983 -1.65e-4,14.41989 1.309958,6.16285 4.057284,11.947593 7.960351,16.761235 0.5853,0.721847 0.925992,1.392264 0.77363,1.522352 -0.149744,0.127854 -1.37891,1.140304 -2.731481,2.249885 l -2.45922,2.017423 -1.573579,-1.887497 z"
           id="path4181"
           inkscape:connector-curvature="0"
           transform="matrix(8,0,0,-8,0,740)" /><path
           style="fill:#b51e32;fill-opacity:1"
           d="M 13.618729,75.55413 C 10.340173,71.827045 6.4828683,65.429175 4.3370505,60.159186 1.5671166,53.35641 0.23687657,46.457551 0.24583435,38.941418 0.25875472,28.100415 3.0412997,18.256088 8.6476308,9.2168209 10.847209,5.6703707 14.625585,0.81900328 15.176768,0.83352671 15.305736,0.836925 16.068794,1.4150095 16.872452,2.1181589 l 1.461196,1.2784534 -1.499196,1.7946152 C 4.8804932,19.500735 1.4404125,39.686956 7.9533221,57.305249 9.869082,62.487637 13.304583,68.441772 16.808166,72.651752 l 1.561597,1.876448 -1.178839,1.013472 c -2.052467,1.764541 -2.031027,1.764466 -3.572195,0.01247 l 0,-9e-6 z"
           id="path4183"
           inkscape:connector-curvature="0"
           transform="matrix(8,0,0,-8,0,740)" /></g></g></g></svg>