<?xml version="1.0" encoding="UTF-8"?>
<!DOCTYPE svg PUBLIC "-//W3C//DTD SVG 1.1//EN" "http://www.w3.org/Graphics/SVG/1.1/DTD/svg11.dtd">
<!-- Creator: CorelDRAW 2018 (64-Bit) -->
<svg xmlns="http://www.w3.org/2000/svg" xml:space="preserve" width="150px" height="54px" version="1.1" style="shape-rendering:geometricPrecision; text-rendering:geometricPrecision; image-rendering:optimizeQuality; fill-rule:evenodd; clip-rule:evenodd"
viewBox="0 0 150 54.35"
 xmlns:xlink="http://www.w3.org/1999/xlink">
 <defs>
  <style type="text/css">
   <![CDATA[
    .fil0 {fill:#D05062}
    .fil1 {fill:#FEFEFE;fill-rule:nonzero}
    .fil3 {fill:#373435;fill-rule:nonzero}
    .fil2 {fill:#464747;fill-rule:nonzero}
   ]]>
  </style>
 </defs>
 <g id="Layer_x0020_1">
  <metadata id="CorelCorpID_0Corel-Layer"/>
  <g id="_2539301404608">
   <rect class="fil0" x="0.78" y="1.68" width="68.13" height="34.51"/>
   <polygon class="fil1" points="6.78,32.21 6.78,5.89 20.33,5.89 20.33,9.53 10.72,9.53 10.72,16.09 20.33,16.09 20.33,19.84 10.72,19.84 10.72,32.21 "/>
   <polygon id="1" class="fil1" points="33.47,9.53 33.47,32.21 29.53,32.21 29.53,9.53 23.08,9.53 23.08,5.89 39.89,5.89 39.89,9.53 "/>
   <path id="2" class="fil1" d="M62.2 12.3c-1.12,-1.03 -2.3,-1.81 -3.54,-2.32 -1.25,-0.52 -2.55,-0.78 -3.92,-0.78 -2.65,0 -4.81,0.92 -6.47,2.77 -1.67,1.85 -2.5,4.23 -2.5,7.17 0,2.84 0.81,5.18 2.43,7.03 1.62,1.84 3.66,2.76 6.12,2.76 1.44,0 2.81,-0.27 4.11,-0.82 1.29,-0.56 2.54,-1.38 3.73,-2.5l0 4.83c-1.05,0.83 -2.21,1.45 -3.46,1.86 -1.25,0.41 -2.6,0.61 -4.06,0.61 -1.85,0 -3.57,-0.33 -5.14,-0.99 -1.58,-0.66 -2.96,-1.63 -4.16,-2.91 -1.18,-1.26 -2.09,-2.74 -2.73,-4.45 -0.63,-1.71 -0.95,-3.53 -0.95,-5.45 0,-1.94 0.32,-3.75 0.95,-5.44 0.64,-1.7 1.56,-3.18 2.77,-4.47 1.2,-1.29 2.58,-2.27 4.14,-2.94 1.56,-0.66 3.24,-1 5.05,-1 1.43,0 2.79,0.23 4.08,0.68 1.29,0.45 2.55,1.13 3.76,2.05l-0.21 4.31z"/>
   <path class="fil2" d="M91.86 28.7l0 3.42 -16.52 0 9.22 -11.77c1.14,-1.48 1.98,-2.77 2.5,-3.89 0.53,-1.11 0.8,-2.12 0.8,-3.04 0,-1.3 -0.37,-2.33 -1.09,-3.07 -0.72,-0.75 -1.72,-1.13 -2.97,-1.13 -1.13,0 -2.05,0.38 -2.78,1.13 -0.73,0.75 -1.14,1.73 -1.23,2.96l-3.86 0c0,-2.36 0.74,-4.25 2.22,-5.66 1.49,-1.4 3.47,-2.11 5.98,-2.11 2.38,0 4.25,0.65 5.63,1.96 1.37,1.31 2.06,3.08 2.06,5.34 0,1.6 -0.4,3.22 -1.18,4.86 -0.8,1.63 -2.47,4 -5.02,7.12l-3.14 3.88 9.38 0z"/>
   <path id="1" class="fil2" d="M112.63 19.45c0,4.18 -0.79,7.45 -2.37,9.82 -1.57,2.36 -3.74,3.55 -6.5,3.55 -2.79,0 -4.97,-1.2 -6.52,-3.58 -1.55,-2.4 -2.33,-5.75 -2.33,-10.08 0,-4.29 0.79,-7.63 2.36,-10.02 1.56,-2.4 3.75,-3.6 6.54,-3.6 2.83,0 5,1.2 6.53,3.6 1.52,2.41 2.29,5.84 2.29,10.31zm-8.94 9.69c1.64,0 2.88,-0.84 3.7,-2.51 0.83,-1.67 1.24,-4.17 1.24,-7.51 0,-3.23 -0.41,-5.7 -1.22,-7.39 -0.81,-1.7 -2,-2.54 -3.57,-2.54 -1.62,0 -2.85,0.84 -3.68,2.53 -0.84,1.69 -1.25,4.18 -1.25,7.48 0,3.19 0.41,5.65 1.24,7.37 0.82,1.71 2,2.57 3.54,2.57z"/>
   <path id="2" class="fil2" d="M129.33 28.7l0 3.42 -16.51 0 9.22 -11.77c1.14,-1.48 1.97,-2.77 2.5,-3.89 0.53,-1.11 0.79,-2.12 0.79,-3.04 0,-1.3 -0.36,-2.33 -1.08,-3.07 -0.73,-0.75 -1.72,-1.13 -2.97,-1.13 -1.13,0 -2.05,0.38 -2.78,1.13 -0.73,0.75 -1.14,1.73 -1.23,2.96l-3.86 0c0,-2.36 0.74,-4.25 2.22,-5.66 1.48,-1.4 3.47,-2.11 5.98,-2.11 2.37,0 4.25,0.65 5.63,1.96 1.37,1.31 2.06,3.08 2.06,5.34 0,1.6 -0.4,3.22 -1.19,4.86 -0.79,1.63 -2.46,4 -5.02,7.12l-3.13 3.88 9.37 0z"/>
   <path id="3" class="fil2" d="M136.56 24.05c0,1.57 0.41,2.84 1.23,3.79 0.81,0.97 1.88,1.44 3.18,1.44 1.47,0 2.62,-0.46 3.46,-1.4 0.84,-0.93 1.26,-2.22 1.26,-3.83 0,-1.64 -0.41,-2.93 -1.24,-3.86 -0.83,-0.93 -1.98,-1.4 -3.45,-1.4 -1.31,0 -2.38,0.49 -3.21,1.46 -0.82,0.97 -1.23,2.24 -1.23,3.8zm2.23 -7.91c0.55,-0.27 1.09,-0.49 1.63,-0.63 0.53,-0.14 1.06,-0.21 1.59,-0.21 2.2,0 4.02,0.79 5.44,2.39 1.43,1.59 2.14,3.62 2.14,6.11 0,2.71 -0.8,4.88 -2.4,6.54 -1.6,1.65 -3.71,2.48 -6.32,2.48 -2.45,0 -4.42,-0.81 -5.91,-2.42 -1.49,-1.62 -2.23,-3.75 -2.23,-6.39 0,-2.81 1.8,-6.92 5.39,-12.31l0.44 -0.63 4.31 -6.52 3.06 1.65 -7.14 9.94z"/>
  </g>
  <polygon class="fil3" points="5.72,44.49 5.72,51.6 4.76,51.6 4.76,45.68 3.38,46.28 3.01,45.47 5.1,44.49 "/>
  <path id="1" class="fil3" d="M11.97 49.38c0,0.68 -0.24,1.25 -0.71,1.7 -0.47,0.46 -1.06,0.69 -1.75,0.69 -0.55,0 -1.06,-0.17 -1.51,-0.52 -0.45,-0.35 -0.75,-0.81 -0.89,-1.4l0.85 -0.35c0.11,0.42 0.29,0.75 0.57,0.99 0.27,0.24 0.59,0.37 0.96,0.37 0.44,0 0.81,-0.14 1.09,-0.41 0.28,-0.28 0.42,-0.63 0.42,-1.06 0,-0.44 -0.14,-0.79 -0.42,-1.07 -0.28,-0.28 -0.64,-0.42 -1.08,-0.42 -0.51,0 -0.9,0.21 -1.2,0.62l-0.96 -0.42 0.46 -3.61 3.73 0 0 0.92 -2.93 0 -0.26 2.04 0.04 0.01c0.35,-0.29 0.78,-0.43 1.29,-0.43 0.63,0 1.18,0.22 1.62,0.67 0.45,0.46 0.68,1.01 0.68,1.68z"/>
  <polygon id="2" class="fil3" points="16.37,48.78 13.05,48.78 13.05,47.99 16.37,47.99 "/>
  <polygon id="3" class="fil3" points="19.76,44.49 19.76,51.6 18.81,51.6 18.81,45.68 17.42,46.28 17.06,45.47 19.15,44.49 "/>
  <path id="4" class="fil3" d="M23.76 47.09c0.57,0 1.09,0.23 1.54,0.69 0.45,0.45 0.68,0.99 0.68,1.61 0,0.64 -0.24,1.2 -0.72,1.67 -0.5,0.48 -1.07,0.71 -1.71,0.71 -0.69,0 -1.27,-0.23 -1.74,-0.71 -0.47,-0.47 -0.7,-1.03 -0.7,-1.67 0,-0.58 0.23,-1.23 0.69,-1.97l2.07 -3.09 0.77 0.53 -1.76 2.43 0.03 0.02c0.21,-0.15 0.49,-0.22 0.85,-0.22zm-1.69 2.31c0,0.41 0.15,0.76 0.43,1.04 0.28,0.28 0.63,0.42 1.05,0.42 0.42,0 0.76,-0.14 1.04,-0.42 0.28,-0.28 0.43,-0.63 0.43,-1.04 0,-0.4 -0.15,-0.75 -0.44,-1.03 -0.28,-0.28 -0.63,-0.43 -1.03,-0.43 -0.4,0 -0.74,0.15 -1.04,0.43 -0.29,0.28 -0.44,0.63 -0.44,1.03z"/>
  <path id="5" class="fil3" d="M36.52 47.88c0,1.1 -0.37,2.03 -1.1,2.77 -0.75,0.75 -1.65,1.12 -2.73,1.12 -1.08,0 -1.99,-0.37 -2.72,-1.12 -0.74,-0.74 -1.11,-1.67 -1.11,-2.77 0,-1.1 0.37,-2.02 1.11,-2.76 0.73,-0.75 1.64,-1.13 2.72,-1.13 1.08,0 1.99,0.38 2.73,1.14 0.73,0.74 1.1,1.66 1.1,2.75zm-6.68 0c0,0.86 0.27,1.57 0.81,2.13 0.55,0.57 1.23,0.85 2.04,0.85 0.81,0 1.49,-0.28 2.03,-0.85 0.55,-0.55 0.82,-1.26 0.82,-2.13 0,-0.86 -0.27,-1.58 -0.82,-2.13 -0.54,-0.56 -1.22,-0.84 -2.03,-0.84 -0.81,0 -1.49,0.28 -2.04,0.84 -0.54,0.56 -0.81,1.27 -0.81,2.13z"/>
  <path id="6" class="fil3" d="M39.81 51.77c-0.75,0 -1.38,-0.26 -1.88,-0.77 -0.49,-0.53 -0.74,-1.17 -0.74,-1.94 0,-0.79 0.25,-1.43 0.74,-1.95 0.5,-0.51 1.13,-0.77 1.88,-0.77 0.52,0 0.98,0.13 1.37,0.39 0.38,0.26 0.68,0.62 0.87,1.08l-0.87 0.36c-0.27,-0.63 -0.75,-0.95 -1.43,-0.95 -0.43,0 -0.81,0.17 -1.13,0.53 -0.31,0.35 -0.47,0.79 -0.47,1.31 0,0.52 0.16,0.95 0.47,1.31 0.32,0.35 0.7,0.53 1.13,0.53 0.7,0 1.19,-0.32 1.48,-0.96l0.85 0.36c-0.19,0.46 -0.48,0.82 -0.88,1.08 -0.4,0.26 -0.86,0.39 -1.39,0.39z"/>
  <path id="7" class="fil3" d="M44.88 51.69c-0.42,0 -0.76,-0.13 -1.04,-0.39 -0.27,-0.25 -0.41,-0.61 -0.42,-1.07l0 -2.85 -0.89 0 0 -0.87 0.89 0 0 -1.56 0.96 0 0 1.56 1.25 0 0 0.87 -1.25 0 0 2.54c0,0.34 0.07,0.57 0.2,0.69 0.13,0.12 0.28,0.18 0.44,0.18 0.08,0 0.15,-0.01 0.23,-0.02 0.07,-0.02 0.14,-0.04 0.2,-0.07l0.3 0.85c-0.25,0.09 -0.54,0.14 -0.87,0.14z"/>
  <path id="8" class="fil3" d="M46.2 49.06c0,-0.79 0.25,-1.43 0.74,-1.95 0.5,-0.51 1.12,-0.77 1.88,-0.77 0.76,0 1.38,0.26 1.87,0.77 0.5,0.52 0.75,1.16 0.75,1.95 0,0.79 -0.25,1.44 -0.75,1.94 -0.49,0.51 -1.11,0.77 -1.87,0.77 -0.76,0 -1.38,-0.26 -1.88,-0.77 -0.49,-0.51 -0.74,-1.16 -0.74,-1.94zm0.96 0c0,0.54 0.16,0.99 0.47,1.33 0.32,0.34 0.72,0.51 1.19,0.51 0.47,0 0.87,-0.17 1.19,-0.51 0.31,-0.34 0.47,-0.79 0.47,-1.33 0,-0.54 -0.16,-0.98 -0.47,-1.32 -0.33,-0.35 -0.73,-0.52 -1.19,-0.52 -0.46,0 -0.86,0.17 -1.19,0.52 -0.31,0.34 -0.47,0.78 -0.47,1.32z"/>
  <path id="9" class="fil3" d="M54.96 51.77c-0.38,0 -0.72,-0.08 -1.03,-0.24 -0.31,-0.16 -0.54,-0.37 -0.71,-0.63l-0.04 0 0 0.7 -0.92 0 0 -7.44 0.96 0 0 2.35 -0.04 0.71 0.04 0c0.17,-0.27 0.4,-0.48 0.71,-0.64 0.31,-0.16 0.65,-0.24 1.03,-0.24 0.67,0 1.24,0.27 1.7,0.79 0.48,0.54 0.72,1.18 0.72,1.93 0,0.75 -0.24,1.39 -0.72,1.92 -0.46,0.53 -1.03,0.79 -1.7,0.79zm-0.16 -0.87c0.46,0 0.84,-0.18 1.15,-0.52 0.32,-0.34 0.47,-0.78 0.47,-1.32 0,-0.54 -0.15,-0.98 -0.47,-1.32 -0.31,-0.35 -0.69,-0.52 -1.15,-0.52 -0.47,0 -0.85,0.17 -1.17,0.52 -0.3,0.34 -0.45,0.78 -0.45,1.32 0,0.54 0.15,0.98 0.45,1.33 0.32,0.34 0.7,0.51 1.17,0.51z"/>
  <path id="10" class="fil3" d="M60.54 51.77c-0.75,0 -1.37,-0.26 -1.85,-0.77 -0.49,-0.51 -0.73,-1.16 -0.73,-1.94 0,-0.78 0.24,-1.43 0.71,-1.94 0.47,-0.52 1.07,-0.78 1.81,-0.78 0.75,0 1.35,0.25 1.8,0.74 0.45,0.48 0.67,1.17 0.67,2.05l-0.01 0.1 -4 0c0.01,0.5 0.18,0.9 0.5,1.21 0.32,0.31 0.7,0.46 1.14,0.46 0.61,0 1.09,-0.31 1.44,-0.92l0.85 0.42c-0.23,0.43 -0.55,0.76 -0.95,1.01 -0.41,0.24 -0.87,0.36 -1.38,0.36zm-1.53 -3.33l2.92 0c-0.02,-0.35 -0.17,-0.64 -0.43,-0.88 -0.26,-0.23 -0.61,-0.34 -1.04,-0.34 -0.36,0 -0.67,0.11 -0.93,0.33 -0.26,0.22 -0.44,0.52 -0.52,0.89z"/>
  <path id="11" class="fil3" d="M64.78 51.6l-0.95 0 0 -5.09 0.91 0 0 0.83 0.04 0c0.1,-0.27 0.3,-0.5 0.6,-0.69 0.3,-0.19 0.6,-0.29 0.89,-0.29 0.28,0 0.51,0.05 0.71,0.13l-0.29 0.92c-0.12,-0.04 -0.31,-0.07 -0.57,-0.07 -0.36,0 -0.67,0.15 -0.94,0.44 -0.26,0.29 -0.4,0.63 -0.4,1.02l0 2.8z"/>
  <polygon id="12" class="fil3" points="70.93,52.85 70.05,52.85 70.05,43.37 70.93,43.37 "/>
  <path id="13" class="fil3" d="M74.71 51.6l0 -7.44 2.7 0c0.59,0 1.09,0.19 1.52,0.58 0.42,0.38 0.63,0.86 0.63,1.45 0,0.73 -0.34,1.25 -1.01,1.55l0 0.04c0.38,0.12 0.69,0.34 0.92,0.65 0.22,0.31 0.34,0.66 0.34,1.05 0,0.61 -0.22,1.12 -0.67,1.52 -0.43,0.4 -0.96,0.6 -1.59,0.6l-2.84 0zm0.96 -6.53l0 2.28 1.74 0c0.34,0 0.62,-0.11 0.85,-0.34 0.23,-0.24 0.34,-0.5 0.34,-0.8 0,-0.29 -0.11,-0.56 -0.33,-0.79 -0.22,-0.23 -0.5,-0.35 -0.82,-0.35l-1.78 0zm0 3.18l0 2.44 1.92 0c0.35,0 0.65,-0.12 0.89,-0.36 0.23,-0.25 0.35,-0.53 0.35,-0.87 0,-0.32 -0.12,-0.61 -0.36,-0.85 -0.25,-0.24 -0.55,-0.36 -0.92,-0.36l-1.88 0z"/>
  <path id="14" class="fil3" d="M83.01 51.77c-0.75,0 -1.36,-0.26 -1.85,-0.77 -0.48,-0.51 -0.73,-1.16 -0.73,-1.94 0,-0.78 0.24,-1.43 0.71,-1.94 0.47,-0.52 1.07,-0.78 1.81,-0.78 0.76,0 1.36,0.25 1.8,0.74 0.45,0.48 0.67,1.17 0.67,2.05l-0.01 0.1 -4 0c0.01,0.5 0.18,0.9 0.5,1.21 0.32,0.31 0.7,0.46 1.14,0.46 0.61,0 1.09,-0.31 1.44,-0.92l0.85 0.42c-0.23,0.43 -0.54,0.76 -0.95,1.01 -0.41,0.24 -0.86,0.36 -1.38,0.36zm-1.53 -3.33l2.93 0c-0.03,-0.35 -0.18,-0.64 -0.44,-0.88 -0.26,-0.23 -0.6,-0.34 -1.04,-0.34 -0.36,0 -0.67,0.11 -0.93,0.33 -0.26,0.22 -0.43,0.52 -0.52,0.89z"/>
  <path id="15" class="fil3" d="M87.26 51.6l-0.96 0 0 -5.09 0.91 0 0 0.83 0.05 0c0.09,-0.27 0.29,-0.5 0.59,-0.69 0.3,-0.19 0.6,-0.29 0.89,-0.29 0.28,0 0.52,0.05 0.71,0.13l-0.29 0.92c-0.12,-0.04 -0.31,-0.07 -0.56,-0.07 -0.36,0 -0.68,0.15 -0.94,0.44 -0.27,0.29 -0.4,0.63 -0.4,1.02l0 2.8z"/>
  <polygon id="16" class="fil3" points="91.08,44.16 91.08,51.6 90.13,51.6 90.13,44.16 "/>
  <path id="17" class="fil3" d="M93.48 44.75c0,0.19 -0.06,0.35 -0.19,0.48 -0.14,0.13 -0.29,0.2 -0.48,0.2 -0.19,0 -0.35,-0.07 -0.48,-0.2 -0.13,-0.13 -0.2,-0.29 -0.2,-0.48 0,-0.19 0.07,-0.34 0.2,-0.48 0.13,-0.13 0.29,-0.19 0.48,-0.19 0.19,0 0.34,0.06 0.48,0.19 0.13,0.14 0.19,0.29 0.19,0.48zm-0.19 1.76l0 5.09 -0.96 0 0 -5.09 0.96 0z"/>
  <path id="18" class="fil3" d="M94.53 46.51l0.92 0 0 0.71 0.04 0c0.15,-0.25 0.37,-0.46 0.67,-0.63 0.3,-0.16 0.62,-0.25 0.94,-0.25 0.63,0 1.11,0.18 1.44,0.54 0.34,0.36 0.51,0.86 0.51,1.52l0 3.2 -0.96 0 0 -3.14c-0.02,-0.83 -0.44,-1.24 -1.26,-1.24 -0.38,0 -0.7,0.15 -0.95,0.46 -0.26,0.31 -0.39,0.68 -0.39,1.11l0 2.81 -0.96 0 0 -5.09z"/>
  <path id="19" class="fil3" d="M100.49 52.77l-0.44 -0.29 0.56 -0.88c-0.15,-0.02 -0.27,-0.1 -0.37,-0.21 -0.1,-0.12 -0.15,-0.26 -0.15,-0.43 0,-0.2 0.07,-0.37 0.21,-0.5 0.13,-0.14 0.3,-0.21 0.49,-0.21 0.21,0 0.37,0.07 0.51,0.21 0.13,0.13 0.2,0.3 0.2,0.5 0,0.19 -0.07,0.39 -0.21,0.61l-0.8 1.2z"/>
  <path id="20" class="fil3" d="M111.99 48.18c0,1.04 -0.3,1.87 -0.92,2.49 -0.69,0.73 -1.61,1.1 -2.74,1.1 -1.08,0 -1.99,-0.37 -2.74,-1.12 -0.75,-0.75 -1.12,-1.67 -1.12,-2.77 0,-1.09 0.37,-2.02 1.12,-2.76 0.75,-0.75 1.66,-1.13 2.74,-1.13 0.55,0 1.07,0.1 1.55,0.29 0.49,0.2 0.89,0.47 1.2,0.83l-0.69 0.68c-0.23,-0.28 -0.52,-0.49 -0.89,-0.65 -0.36,-0.15 -0.75,-0.23 -1.17,-0.23 -0.81,0 -1.49,0.28 -2.05,0.84 -0.56,0.57 -0.84,1.28 -0.84,2.13 0,0.85 0.28,1.57 0.84,2.13 0.56,0.57 1.24,0.85 2.05,0.85 0.75,0 1.36,-0.21 1.86,-0.63 0.49,-0.41 0.77,-0.99 0.85,-1.71l-2.71 0 0 -0.9 3.61 0c0.04,0.2 0.05,0.38 0.05,0.56z"/>
  <path id="21" class="fil3" d="M115.23 51.77c-0.75,0 -1.37,-0.26 -1.85,-0.77 -0.49,-0.51 -0.73,-1.16 -0.73,-1.94 0,-0.78 0.24,-1.43 0.71,-1.94 0.47,-0.52 1.07,-0.78 1.81,-0.78 0.75,0 1.35,0.25 1.8,0.74 0.45,0.48 0.67,1.17 0.67,2.05l-0.01 0.1 -4 0c0.01,0.5 0.18,0.9 0.5,1.21 0.32,0.31 0.7,0.46 1.14,0.46 0.61,0 1.09,-0.31 1.44,-0.92l0.85 0.42c-0.23,0.43 -0.55,0.76 -0.95,1.01 -0.41,0.24 -0.87,0.36 -1.38,0.36zm-1.53 -3.33l2.92 0c-0.03,-0.35 -0.17,-0.64 -0.43,-0.88 -0.26,-0.23 -0.61,-0.34 -1.04,-0.34 -0.36,0 -0.68,0.11 -0.94,0.33 -0.26,0.22 -0.43,0.52 -0.51,0.89z"/>
  <path id="22" class="fil3" d="M119.47 51.6l-0.96 0 0 -5.09 0.92 0 0 0.83 0.04 0c0.1,-0.27 0.3,-0.5 0.6,-0.69 0.3,-0.19 0.6,-0.29 0.89,-0.29 0.28,0 0.51,0.05 0.71,0.13l-0.3 0.92c-0.11,-0.04 -0.3,-0.07 -0.56,-0.07 -0.36,0 -0.67,0.15 -0.94,0.44 -0.26,0.29 -0.4,0.63 -0.4,1.02l0 2.8z"/>
  <path id="23" class="fil3" d="M123.25 51.6l-0.96 0 0 -5.09 0.91 0 0 0.71 0.05 0c0.14,-0.25 0.37,-0.46 0.67,-0.63 0.3,-0.16 0.6,-0.25 0.9,-0.25 0.37,0 0.7,0.09 0.98,0.26 0.29,0.18 0.5,0.42 0.63,0.72 0.42,-0.65 1.01,-0.98 1.76,-0.98 0.59,0 1.04,0.18 1.36,0.54 0.32,0.36 0.48,0.88 0.48,1.54l0 3.18 -0.96 0 0 -3.03c0,-0.48 -0.09,-0.83 -0.26,-1.04 -0.17,-0.21 -0.46,-0.31 -0.87,-0.31 -0.37,0 -0.68,0.15 -0.93,0.46 -0.25,0.32 -0.37,0.68 -0.37,1.11l0 2.81 -0.96 0 0 -3.03c0,-0.48 -0.09,-0.83 -0.26,-1.04 -0.17,-0.21 -0.46,-0.31 -0.87,-0.31 -0.37,0 -0.68,0.15 -0.93,0.46 -0.25,0.32 -0.37,0.68 -0.37,1.11l0 2.81z"/>
  <path id="24" class="fil3" d="M131.79 50.04c0,0.25 0.11,0.46 0.32,0.63 0.21,0.17 0.46,0.25 0.75,0.25 0.4,0 0.76,-0.15 1.07,-0.45 0.32,-0.3 0.47,-0.65 0.47,-1.05 -0.29,-0.23 -0.71,-0.35 -1.24,-0.35 -0.39,0 -0.72,0.09 -0.98,0.28 -0.26,0.19 -0.39,0.42 -0.39,0.69zm1.24 -3.7c0.71,0 1.27,0.19 1.68,0.57 0.41,0.38 0.61,0.9 0.61,1.55l0 3.14 -0.92 0 0 -0.7 -0.04 0c-0.39,0.58 -0.92,0.87 -1.58,0.87 -0.56,0 -1.03,-0.17 -1.41,-0.5 -0.37,-0.33 -0.56,-0.75 -0.56,-1.25 0,-0.52 0.2,-0.94 0.59,-1.25 0.4,-0.32 0.94,-0.47 1.6,-0.47 0.57,0 1.04,0.1 1.4,0.31l0 -0.22c0,-0.33 -0.13,-0.61 -0.39,-0.85 -0.26,-0.23 -0.57,-0.34 -0.93,-0.34 -0.53,0 -0.95,0.22 -1.26,0.67l-0.85 -0.53c0.47,-0.66 1.15,-1 2.06,-1z"/>
  <path id="25" class="fil3" d="M136.4 46.51l0.92 0 0 0.71 0.04 0c0.14,-0.25 0.37,-0.46 0.67,-0.63 0.3,-0.16 0.61,-0.25 0.94,-0.25 0.62,0 1.1,0.18 1.44,0.54 0.34,0.36 0.5,0.86 0.5,1.52l0 3.2 -0.95 0 0 -3.14c-0.02,-0.83 -0.44,-1.24 -1.26,-1.24 -0.38,0 -0.7,0.15 -0.96,0.46 -0.25,0.31 -0.38,0.68 -0.38,1.11l0 2.81 -0.96 0 0 -5.09z"/>
  <polygon id="26" class="fil3" points="146.49,46.51 143.3,53.85 142.31,53.85 143.49,51.28 141.39,46.51 142.43,46.51 143.95,50.17 143.97,50.17 145.45,46.51 "/>
 </g>
</svg>
