<svg xmlns="http://www.w3.org/2000/svg" width="444.369" height="64.795" viewBox="0 0 444.369 64.795"><defs><style>.a{fill:#179c8c;}.b{fill:#00756d;}</style></defs><g transform="translate(222.184 32.398)"><g transform="translate(-222.184 -32.398)"><g transform="translate(242.448)"><path class="a" d="M421.6,19.8h15.783c11.689,0,19.225,4.45,19.225,14.181,0,6.112-3.441,10.977-10.384,12.757v.356c8.6,1.246,14,5.993,14,14.063,0,11.274-8.485,17.029-21.717,17.029H421.6Zm14.063,25.633c12.045,0,16.851-3.916,16.851-11.571s-5.578-10.74-16.317-10.74H425.635v22.31Zm1.78,29.312c11.571,0,18.691-4.272,18.691-13.647,0-8.307-6.824-12.4-18.691-12.4H425.635V74.745Z" transform="translate(-421.6 -14.46)"/><path class="a" d="M515.847,44.7c10.265,0,19.106,8.129,19.106,22.429S526.112,89.38,515.847,89.38,496.8,81.251,496.8,67.129,505.641,44.7,515.847,44.7Zm0,41.179c8.6,0,15.071-7.6,15.071-18.75S524.451,48.2,515.847,48.2s-14.953,7.714-14.953,18.928S507.243,85.879,515.847,85.879Z" transform="translate(-452.179 -24.585)"/><path class="a" d="M591.947,44.7c10.265,0,19.106,8.129,19.106,22.429S602.212,89.38,591.947,89.38,572.9,81.251,572.9,67.129,581.741,44.7,591.947,44.7Zm0,41.179c8.6,0,15.071-7.6,15.071-18.75s-6.527-18.988-15.071-18.988-14.953,7.714-14.953,18.928S583.343,85.879,591.947,85.879Z" transform="translate(-483.124 -24.585)"/><path class="a" d="M654.9,10.8h3.916V57.735h.178L680,31.983h4.51L670.683,48.775l16.139,25.693h-4.332L668.369,51.742,658.816,62.9V74.468H654.9Z" transform="translate(-516.469 -10.8)"/><path class="a" d="M713.773,80.539c3.62,3.026,7.417,5.4,13.529,5.4s10.087-3.916,10.087-8.426-5.459-7.6-10.325-9.375c-6.468-2.314-13.529-4.866-13.529-12.1,0-6.171,4.866-11.333,13.707-11.333a19.7,19.7,0,0,1,12.1,4.45l-2.136,2.729c-2.848-2.136-5.815-3.8-10.206-3.8-6.527,0-9.553,3.8-9.553,7.714s4.984,6.7,10.028,8.6c6.646,2.492,13.885,4.688,13.885,12.995,0,6.349-5.162,11.927-14.359,11.927A24.625,24.625,0,0,1,711.4,83.506Z" transform="translate(-539.444 -24.585)"/></g><g transform="translate(0 5.815)"><path d="M13,20.6H28.783L37.8,44.512l3.2,9.375h.356l3.2-9.375L53.23,20.6H69.013V78.156H54.832V61.186c0-5.815,1.246-14.775,1.958-20.53h-.356l-4.806,13.41-7.951,19.4h-5.7l-7.951-19.4L25.4,40.656h-.356C25.757,46.411,27,55.371,27,61.186v16.97H13Z" transform="translate(-13 -20.6)"/><path d="M121.4,20.6h16.97c17.5,0,29.549,8.129,29.549,28.481S155.874,78.1,139.26,78.1H121.4Zm16.08,45.333c8.307,0,14.893-3.382,14.893-16.792s-6.527-16.317-14.893-16.317h-.89v33.11Z" transform="translate(-57.08 -20.6)"/><path d="M209.7,20.6h22.31c12.4,0,23.022,4.628,23.022,19.106S244.056,59.881,232.01,59.881h-7.061V78.1H209.7Zm21.6,27.295c5.993,0,8.841-3.026,8.841-8.129s-3.2-7.061-8.841-7.061h-6.349v15.19Z" transform="translate(-92.986 -20.6)"/><path d="M294.5,20.6h15.249V78.156H294.5Z" transform="translate(-127.469 -20.6)"/></g><path class="b" d="M333.8,30.365,344.54,29l6.468,52.216-10.74,1.305Z" transform="translate(-143.45 -18.201)"/><path class="a" d="M355.9,40.506,366.758,35.7l19.818,44.977-10.859,4.806Z" transform="translate(-152.436 -20.925)"/></g></g></svg>