<svg width="203" height="24" viewBox="0 0 203 24" xmlns="http://www.w3.org/2000/svg"><path d="M9.277 9.662c-1.793-.857-3.352-1.558-3.352-2.96 0-1.17.78-2.338 2.416-2.338 1.248 0 2.65.39 4.522 1.246l1.87-3.74C12.552.623 10.29 0 7.953 0 3.274 0 .468 2.494.468 6.701c0 4.208 3.274 5.844 5.924 7.091 1.871.935 3.586 1.792 3.586 3.273 0 1.325-1.169 2.26-2.962 2.26-1.403 0-3.118-.546-5.145-1.559L0 21.74c2.495 1.403 4.833 2.026 7.406 2.026 4.833 0 7.796-2.65 7.796-7.169 0-4.207-3.275-5.688-5.925-6.935Zm15.67-7.013c-2.028 0-5.068 0-6.861.078v20.65h5.145v-6.312h1.56c2.338 0 7.795-.78 7.795-7.714.078-4.286-2.65-6.702-7.64-6.702Zm-.157 10.598h-1.559V6.623H24.87c2.416 0 2.884 1.403 2.884 3.585s-.936 3.039-2.963 3.039Zm22.842 2.182c1.793-1.403 2.728-3.507 2.728-6 0-4.987-4.287-6.702-8.263-6.702-2.027 0-5.067 0-6.86.078v20.65h5.145v-6.312H42.876c.858 1.402 1.95 3.584 2.261 6.312h5.613c-.39-3.195-2.105-6.39-3.118-8.026Zm-5.691-2.182H40.382V6.623h.078c.467-.078 1.013-.078 1.559-.078 2.416 0 2.884 1.403 2.884 3.585s-.935 3.117-2.962 3.117Zm12.161-9.429v19.559h5.145V2.728h-5.145v1.09Zm21.516 12.39L69.46 2.728h-5.691v20.649h4.6V10.364l6.392 13.013h5.457V2.727h-4.6v13.48Zm81.154-12.39v19.559h5.145V2.728h-5.145v1.09Zm21.516 12.39-6.159-13.48h-5.69v20.649h4.599V10.364l6.392 13.013h5.457V2.727h-4.6v13.48Zm-85.675-.624h2.183v4.208h-.078c-.546.156-1.715.312-2.261.312-2.729 0-3.82-2.026-3.82-7.169 0-4.52 1.56-6.701 4.755-6.701 1.092 0 2.651.467 4.366 1.324l1.403-3.428c-1.87-1.169-4.287-1.87-6.548-1.87-3.118 0-5.38.857-6.86 2.65-1.481 1.791-2.261 4.44-2.261 8.103C83.492 21.039 85.83 24 92.145 24c2.027 0 4.99-.545 7.25-1.636V12.078h-6.782v3.506Zm15.28-.779h6.704v-3.974h-6.705V6.78h7.328V2.727h-12.239v17.065s0 1.637 1.014 2.727c.701.702 1.637 1.091 2.884 1.091 3.742 0 7.874-.078 8.42-.155v-4.052h-7.407v-4.598ZM146.714.312h-4.911v19.402s0 1.637 1.013 2.728c.702.7 1.637 1.09 2.885 1.09 3.742 0 7.873-.077 8.419-.155v-4.052h-7.406V.312Zm-15.28 15.117c1.793-1.403 2.729-3.507 2.729-6 0-4.987-4.288-6.702-8.263-6.702-2.027 0-5.068 0-6.86.078v20.65h5.144v-6.312H126.68c.858 1.402 1.949 3.584 2.26 6.312h5.614c-.39-3.195-2.105-6.39-3.119-8.026Zm-5.69-2.182h-1.56V6.623h.078c.468-.078 1.092-.078 1.56-.078 2.416 0 2.884 1.403 2.884 3.585s-.935 3.117-2.962 3.117Zm71.018-.857 5.925-9.429v-.234h-5.145l-4.521 7.792h-1.17V2.727h-4.677v20.65h4.677v-8.728h.936l4.833 8.728H203v-.234l-6.237-10.753Z" fill="#01324B" fill-rule="nonzero"/></svg>